<?xml version="1.0" encoding="UTF-8"?>
<svg width="36px" height="44px" viewBox="0 0 36 44" version="1.1" xmlns="http://www.w3.org/2000/svg" xmlns:xlink="http://www.w3.org/1999/xlink">
    <!-- Generator: Sketch 50.2 (55047) - http://www.bohemiancoding.com/sketch -->
    <title>star</title>
    <desc>Created with Sketch.</desc>
    <defs>
        <linearGradient x1="100%" y1="50%" x2="0%" y2="50%" id="linearGradient-1">
            <stop stop-color="#FFC92F" offset="0%"></stop>
            <stop stop-color="#FF9815" offset="100%"></stop>
        </linearGradient>
    </defs>
    <g id="Page-1" stroke="none" stroke-width="1" fill="none" fill-rule="evenodd">
        <g id="Desktop---rss" transform="translate(-15.000000, -62.000000)" fill-rule="nonzero">
            <g id="rss" transform="translate(0.000000, 63.000000)">
                <g id="star" transform="translate(16.000000, 0.000000)">
                    <path d="M33.6087048,0 L0.677099771,0 C0.303160137,0 0,0.303213527 0,0.677420749 L0,41.3226657 C0,41.5692468 0.133975475,41.7964086 0.349744602,41.9156346 C0.565513728,42.0347704 0.829131239,42.0272736 1.03767797,41.8960346 L17.1429023,31.7588395 L33.2480363,41.8960346 C33.3580876,41.9652218 33.4832156,41.9999961 33.6086145,41.9999961 C33.7211936,41.9999961 33.8339533,41.9719057 33.9359697,41.9155443 C34.1518291,41.7963183 34.2857143,41.5691565 34.2857143,41.3225753 L34.2857143,0.677420749 C34.2858045,0.303213527 33.9826444,0 33.6087048,0 Z" id="Shape" stroke="#000000" fill="url(#linearGradient-1)"></path>
                    <path d="M5.6982775,14.7141225 L10.5072793,18.7455741 L8.97490758,24.8444738 C8.82015693,25.4437133 8.9968485,26.0153135 9.43593556,26.3359102 C9.65113568,26.4931025 9.90394881,26.5714286 10.1664339,26.5714286 C10.4393968,26.5714286 10.7228377,26.4868004 10.9855018,26.3181743 L13.3892415,24.7979284 C13.7032205,24.5993223 13.7976113,24.1823935 13.6000534,23.8667485 C13.4024956,23.5510134 12.9877675,23.4559417 12.673878,23.6548179 L10.2784669,25.1698421 L11.9130206,18.6642771 C11.9763358,18.4124633 11.8903633,18.1466048 11.6919994,17.9803195 L6.56597371,13.6830993 L13.2255354,13.2356504 C13.483274,13.2183647 13.7082356,13.05397 13.8042383,12.8129598 L16.2857116,6.58405677 L18.7669161,12.8130498 C18.8629189,13.05415 19.08797,13.2184547 19.3457087,13.2357405 L26.0053599,13.6831894 L20.8792446,17.9804095 C20.6808808,18.1466948 20.5949978,18.4125533 20.6582234,18.6643671 L22.2926876,25.1699322 L16.6433933,21.596823 C16.4248797,21.4587171 16.146633,21.458537 15.9280298,21.596823 L14.9129264,22.2388267 C14.5989474,22.4374328 14.5045567,22.8542715 14.7021145,23.1700066 C14.8996723,23.4853815 15.3142214,23.5804532 15.62829,23.3819371 L16.2857116,22.9660887 L21.5820705,26.3159235 C22.1011299,26.6488543 22.6962214,26.6565069 23.1355771,26.3360002 C23.5745746,26.0152235 23.7512662,25.4438033 23.5975902,24.8487953 L22.0641438,18.7455741 L26.8698321,14.7169134 C27.345368,14.3235725 27.5364779,13.7567438 27.3688313,13.2381713 C27.2012743,12.7190585 26.715171,12.3735235 26.1046761,12.3364312 L19.8568873,11.9166215 L17.530702,6.076918 C17.3054718,5.50081627 16.8284135,5.14285714 16.2857116,5.14285714 C15.7429201,5.14285714 15.2658618,5.50081627 15.0423331,6.07286665 L12.7144463,11.9166215 L6.4711352,12.3361611 C5.85634168,12.3734335 5.37032792,12.7189685 5.20268138,13.2378111 C5.03494529,13.7568339 5.22614473,14.3235725 5.6982775,14.7141225 Z" id="Shape" fill="#000000"></path>
                </g>
            </g>
        </g>
    </g>
</svg>