<?xml version="1.0" encoding="UTF-8"?>
<svg width="17px" height="32px" viewBox="0 0 17 32" version="1.1" xmlns="http://www.w3.org/2000/svg" xmlns:xlink="http://www.w3.org/1999/xlink">
    <!-- Generator: Sketch 50.2 (55047) - http://www.bohemiancoding.com/sketch -->
    <title>right-arrow</title>
    <desc>Created with Sketch.</desc>
    <defs></defs>
    <g id="Page-1" stroke="none" stroke-width="1" fill="none" fill-rule="evenodd">
        <g id="Desktop---rss" transform="translate(-996.000000, -83.000000)" fill-rule="nonzero">
            <g id="rss" transform="translate(0.000000, 63.000000)">
                <g id="right-arrow" transform="translate(996.000000, 20.000000)">
                    <path d="M1.20426765,0.195285446 C0.926354563,-0.0716494994 0.483412125,-0.0639538426 0.214944274,0.212372413 C-0.0468987905,0.481981274 -0.0468987905,0.9093511 0.214944274,1.17889474 L15.11186,15.9921212 L0.213566843,30.8039781 C-0.0643462492,31.070913 -0.0720205074,31.5112611 0.196381752,31.7876526 C0.464849603,32.0639788 0.907726449,32.0716093 1.18570513,31.8047396 C1.19154282,31.7991309 1.19724932,31.7934569 1.20289022,31.7876526 L16.5951563,16.4832737 C16.8682812,16.2116431 16.8682812,15.771295 16.5951563,15.4995992 L1.20426765,0.195285446 Z" id="Shape" fill="#F44336"></path>
                    <path d="M0.701193098,31.9999988 C0.314638527,32.0007161 0.000722882092,31.6897682 1.08608461e-06,31.3055832 C-0.000327003009,31.120371 0.0736898966,30.9426585 0.20564733,30.811836 L15.1098162,16.0003988 L0.20564733,1.18902682 C-0.068044592,0.917012622 -0.068044592,0.476024847 0.20564733,0.204010649 C0.479339252,-0.0680035496 0.923046943,-0.0680035496 1.19673887,0.204010649 L16.5950756,15.507956 C16.8683081,15.7795789 16.8683081,16.2199145 16.5950756,16.4916026 L1.19673887,31.7954827 C1.06550323,31.9263704 0.887153996,31.9999988 0.701193098,31.9999988 Z" id="Shape" fill="#000000"></path>
                </g>
            </g>
        </g>
    </g>
</svg>