<?xml version="1.0" encoding="UTF-8"?>
<svg width="32px" height="32px" viewBox="0 0 32 32" version="1.1" xmlns="http://www.w3.org/2000/svg" xmlns:xlink="http://www.w3.org/1999/xlink">
    <!-- Generator: Sketch 50.2 (55047) - http://www.bohemiancoding.com/sketch -->
    <title>podcast</title>
    <desc>Created with Sketch.</desc>
    <defs></defs>
    <g id="Page-1" stroke="none" stroke-width="1" fill="none" fill-rule="evenodd">
        <g id="Desktop---rss" transform="translate(-812.000000, -16.000000)" fill="#000000" fill-rule="nonzero">
            <g id="podcast" transform="translate(812.000000, 16.000000)">
                <path d="M32,16 C32,7.17773913 24.8229565,0 16,0 C7.17704348,0 0,7.17773913 0,16 C0,21.5450435 2.89947826,26.6977391 7.59791304,29.6055652 L7.00869565,31.04 C6.89878261,31.3085217 6.96556522,31.6166957 7.17843478,31.8135652 C7.3106087,31.936 7.48034783,32 7.65217391,32 C7.75721739,32 7.86434783,31.9756522 7.96243478,31.9269565 L16,27.9081739 L24.0375652,31.9269565 C24.1356522,31.9756522 24.242087,32 24.3478261,32 C24.5196522,32 24.6893913,31.936 24.8215652,31.8135652 C25.0344348,31.616 25.1012174,31.3078261 24.9913043,31.04 L24.402087,29.6055652 C29.1005217,26.6977391 32,21.5450435 32,16 Z M15.3043478,26.7005217 L8.99895652,29.8553043 L11.6208696,23.4685217 L12.2226087,23.8977391 L15.3043478,26.0973913 L15.3043478,26.7005217 Z M18.9697391,16.8445217 C19.7391304,16.0646957 20.173913,15.024 20.173913,13.9130435 C20.173913,11.6111304 18.301913,9.73913043 16,9.73913043 C13.698087,9.73913043 11.826087,11.6111304 11.826087,13.9130435 C11.826087,15.0233043 12.2601739,16.0626087 13.0295652,16.8431304 L10.8556522,21.6695652 L10.6671304,22.1286957 C10.6671304,22.1293913 10.6671304,22.130087 10.6664348,22.1307826 L9.75234783,24.3561739 C7.11791304,22.3916522 5.56521739,19.3266087 5.56521739,16 C5.56521739,10.2462609 10.2462609,5.56521739 16,5.56521739 C21.7537391,5.56521739 26.4347826,10.2462609 26.4347826,16 C26.4347826,19.3266087 24.882087,22.3916522 22.2469565,24.3568696 L21.3335652,22.1314783 C21.3335652,22.1307826 21.3335652,22.130087 21.3328696,22.1293913 L18.9697391,16.8445217 Z M19.8344348,22.1481739 L17.2633043,23.9826087 L16.6956522,24.3881739 L16.6956522,18.0285217 C16.9057391,17.9930435 17.1123478,17.9387826 17.314087,17.872 C17.3766957,17.8511304 17.4351304,17.8233043 17.4963478,17.7996522 C17.6041739,17.7586087 17.714087,17.7224348 17.8177391,17.6723478 L19.8344348,22.1481739 Z M15.3043478,24.3888696 L12.1655652,22.1488696 L14.1822609,17.6723478 C14.2852174,17.7217391 14.3930435,17.7572174 14.4994783,17.7982609 C14.562087,17.8226087 14.6226087,17.8511304 14.6866087,17.8726957 C14.8883478,17.9394783 15.0942609,17.9937391 15.3043478,18.0292174 L15.3043478,24.3888696 Z M14.3478261,16.1502609 C14.3318261,16.1384348 14.3130435,16.130087 14.2970435,16.1175652 C13.6111304,15.581913 13.2173913,14.7784348 13.2173913,13.9130435 C13.2173913,12.3784348 14.4653913,11.1304348 16,11.1304348 C17.5346087,11.1304348 18.7826087,12.3784348 18.7826087,13.9130435 C18.7826087,14.7791304 18.3888696,15.5833043 17.7022609,16.1175652 C16.7547826,16.8514783 15.3092174,16.8577391 14.3478261,16.1502609 Z M16.6956522,26.7005217 L16.6956522,26.0973913 L19.7773913,23.8977391 L20.3791304,23.4685217 L23.0017391,29.8553043 L16.6956522,26.7005217 Z M23.8671304,28.3026087 L22.7902609,25.68 C25.9526957,23.4650435 27.826087,19.8907826 27.826087,16 C27.826087,9.47895652 22.5210435,4.17391304 16,4.17391304 C9.47895652,4.17391304 4.17391304,9.47895652 4.17391304,16 C4.17391304,19.8907826 6.04730435,23.4650435 9.20973913,25.68 L8.13286957,28.3026087 C3.95686957,25.6264348 1.39130435,20.9857391 1.39130435,16 C1.39130435,7.94434783 7.94504348,1.39130435 16,1.39130435 C24.0549565,1.39130435 30.6086957,7.94434783 30.6086957,16 C30.6086957,20.9857391 28.0431304,25.6264348 23.8671304,28.3026087 Z" id="Shape"></path>
            </g>
        </g>
    </g>
</svg>