<?xml version="1.0" encoding="UTF-8"?>
<svg width="33px" height="32px" viewBox="0 0 33 32" version="1.1" xmlns="http://www.w3.org/2000/svg" xmlns:xlink="http://www.w3.org/1999/xlink">
    <!-- Generator: Sketch 50.2 (55047) - http://www.bohemiancoding.com/sketch -->
    <title>rss-feed-hand-drawn-symbol</title>
    <desc>Created with Sketch.</desc>
    <defs></defs>
    <g id="Page-1" stroke="none" stroke-width="1" fill="none" fill-rule="evenodd">
        <g id="Desktop---rss" transform="translate(-685.000000, -16.000000)" fill="#000000" fill-rule="nonzero">
            <g id="rss-feed-hand-drawn-symbol" transform="translate(685.255814, 16.000000)">
                <path d="M6.82038216,22.9565677 C4.99764353,22.1764739 3.08840911,21.9304106 1.51057469,23.3333289 C0.130963012,24.560073 -0.299586942,26.6483365 0.202258381,28.3762876 C0.862512137,30.6477961 3.16950373,32.2151288 5.59640117,31.975913 C8.39119506,31.7007478 11.0653115,29.2203162 10.2793649,26.4056225 C9.81116116,24.7291764 8.39119506,23.62859 6.82038216,22.9565677 Z M5.29115823,30.1674293 C3.75923371,30.3182231 2.51279931,29.2059513 2.04027459,27.887287 C1.68649833,26.9000565 1.9090263,25.9075414 2.51087032,25.0639595 C3.96177737,23.0298061 7.04375889,24.7695171 8.13301941,26.2944995 C9.47536305,28.1753285 7.14013109,29.9856729 5.29115823,30.1674293 Z" id="Shape"></path>
                <path d="M14.4955253,16.5638183 C10.7126961,13.4979701 5.55674926,12.8028915 0.83987672,12.6517042 C0.470786409,12.6396858 0.231963267,12.8291483 0.116555178,13.0820712 C0.0278626379,13.2078437 -0.0187163437,13.3734224 0.00707532379,13.5827116 C0.20686451,15.2012191 0.205324708,16.8199563 0.111088884,18.445583 C0.0789840326,18.9949095 0.505200962,19.2576309 0.934035554,19.2405601 C1.00132486,19.2592385 1.07284862,19.2716396 1.15184041,19.2732472 C4.30681577,19.3416834 7.6678165,19.7991492 10.1824656,21.8605781 C12.8866642,24.0782465 13.2060959,27.732615 12.911301,30.9655729 C12.8886659,31.2143621 12.965271,31.4020639 13.0926896,31.5342667 C13.2240346,31.7333746 13.4390678,31.8810405 13.7440254,31.8965803 C15.58147,31.9906608 17.4202234,32 19.2595928,32 C19.8178476,32 20.0833093,31.552945 20.0609822,31.1230373 C20.0820775,31.0441137 20.0966286,30.9589895 20.0922402,30.8622297 C19.8518772,25.348143 19.0427118,20.2485008 14.4955253,16.5638183 Z M14.6284101,30.2778431 C14.830894,26.8601688 14.188181,23.468292 11.6563631,20.9578944 C9.12339043,18.4467313 5.27211704,17.7758426 1.8105673,17.6390468 C1.85121805,16.5389393 1.83990051,15.4415877 1.74681954,14.3450016 C5.74468198,14.5436502 9.73715512,15.2474556 13.0879932,17.5651756 C17.4170668,20.5598317 18.1594049,25.5102004 18.4010767,30.3409207 C17.1430592,30.3366339 15.8857347,30.3245389 14.6284101,30.2778431 Z" id="Shape"></path>
                <path d="M23.5298955,6.5589783 C17.0035575,1.18689175 8.00969987,0.232062319 0.903261354,0 C0.902507291,0 0.901376197,0 0.900546728,0 C0.522233428,0 0.283647962,0.1492754 0.151988599,0.442647258 L0.106066176,0.523834797 C0.0161064852,0.653765324 -0.0168460586,0.824898908 0.00803801338,1.03281822 C0.312076129,3.53775083 0.368329213,6.20048886 0.185695206,9.41280408 C0.171518826,9.66032706 0.23161763,9.85712688 0.36372943,9.99848154 C0.510771673,10.1556777 0.747019544,10.2460045 1.01199721,10.2460045 L1.13294888,10.241968 L1.20571594,10.262303 C1.29567563,10.2868268 1.3745506,10.2990125 1.45304853,10.3006119 C6.24866163,10.4070849 12.3396038,11.0170577 16.9119389,14.8252559 C20.7869922,18.0528795 22.3427745,23.2704355 21.6687932,30.7759417 C21.6466237,31.0243025 21.7018211,31.2141716 21.8380803,31.356821 L21.8951628,31.4291739 C22.055175,31.6750975 22.2937604,31.8082268 22.603831,31.8243729 C25.7142646,31.9860626 28.8698666,31.9996192 31.8358971,32 C32.0940128,32 32.3007768,31.9194979 32.4493272,31.7609309 C32.6155227,31.5846184 32.7062364,31.3092205 32.691683,31.0253687 L32.6870832,30.9473038 L32.7077445,30.8715237 C32.7360973,30.7632228 32.747559,30.6719059 32.7433363,30.5767809 C32.3896808,22.3344178 31.3572935,13.0030298 23.5298955,6.5589783 Z M30.9101343,30.1620847 L30.3932242,30.1597999 C28.394053,30.1527931 26.2412791,30.1354284 24.0437893,30.0518799 L23.5436949,30.0329158 L23.5731787,29.5286544 C23.9618227,22.8673919 22.3322176,17.6486935 18.7282499,14.0181025 C15.3443932,10.6091398 10.0456694,8.80481147 2.52917153,8.50260494 L2.04136832,8.48287926 L2.05939042,7.98973732 C2.13291154,5.97870826 2.09807384,4.16135643 1.95329378,2.4344076 L1.90586323,1.86990287 L2.46643351,1.89815857 C10.9241525,2.32458355 16.8734817,4.04498254 21.7567169,7.47610808 C29.071503,12.6161323 30.4671978,21.1664901 30.8845715,29.6403824 L30.9101343,30.1620847 Z" id="Shape"></path>
            </g>
        </g>
    </g>
</svg>