<?xml version="1.0" encoding="UTF-8"?>
<svg width="35px" height="34px" viewBox="0 0 35 34" version="1.1" xmlns="http://www.w3.org/2000/svg" xmlns:xlink="http://www.w3.org/1999/xlink">
    <!-- Generator: Sketch 50.2 (55047) - http://www.bohemiancoding.com/sketch -->
    <title>rss-feed-hand-drawn-symbol copy</title>
    <desc>Created with Sketch.</desc>
    <defs>
        <linearGradient x1="100%" y1="50%" x2="0%" y2="50%" id="linearGradient-1">
            <stop stop-color="#FFC92F" offset="0%"></stop>
            <stop stop-color="#FF9815" offset="100%"></stop>
        </linearGradient>
    </defs>
    <g id="Page-1" stroke="none" stroke-width="1" fill="none" fill-rule="evenodd">
        <g id="Desktop---rss" transform="translate(-684.000000, -15.000000)" fill="url(#linearGradient-1)" fill-rule="nonzero" stroke="#000000">
            <g id="rss-feed-hand-drawn-symbol-copy" transform="translate(685.255814, 16.000000)">
                <path d="M6.82038216,22.9565677 C4.99764353,22.1764739 3.08840911,21.9304106 1.51057469,23.3333289 C0.130963012,24.560073 -0.299586942,26.6483365 0.202258381,28.3762876 C0.862512137,30.6477961 3.16950373,32.2151288 5.59640117,31.975913 C8.39119506,31.7007478 11.0653115,29.2203162 10.2793649,26.4056225 C9.81116116,24.7291764 8.39119506,23.62859 6.82038216,22.9565677 Z" id="Shape"></path>
                <path d="M14.4955253,16.5638183 C10.7126961,13.4979701 5.55674926,12.8028915 0.83987672,12.6517042 C0.470786409,12.6396858 0.231963267,12.8291483 0.116555178,13.0820712 C0.0278626379,13.2078437 -0.0187163437,13.3734224 0.00707532379,13.5827116 C0.20686451,15.2012191 0.205324708,16.8199563 0.111088884,18.445583 C0.0789840326,18.9949095 0.505200962,19.2576309 0.934035554,19.2405601 C1.00132486,19.2592385 1.07284862,19.2716396 1.15184041,19.2732472 C4.30681577,19.3416834 7.6678165,19.7991492 10.1824656,21.8605781 C12.8866642,24.0782465 13.2060959,27.732615 12.911301,30.9655729 C12.8886659,31.2143621 12.965271,31.4020639 13.0926896,31.5342667 C13.2240346,31.7333746 13.4390678,31.8810405 13.7440254,31.8965803 C15.58147,31.9906608 17.4202234,32 19.2595928,32 C19.8178476,32 20.0833093,31.552945 20.0609822,31.1230373 C20.0820775,31.0441137 20.0966286,30.9589895 20.0922402,30.8622297 C19.8518772,25.348143 19.0427118,20.2485008 14.4955253,16.5638183 Z" id="Shape"></path>
                <path d="M23.5298955,6.5589783 C17.0035575,1.18689175 8.00969987,0.232062319 0.903261354,0 C0.522233428,0 0.283647962,0.1492754 0.151988599,0.442647258 C0.0161064852,0.653765324 -0.0168460586,0.824898908 0.00803801338,1.03281822 C0.312076129,3.53775083 0.368329213,6.20048886 0.185695206,9.41280408 C0.171518826,9.66032706 0.23161763,9.85712688 0.36372943,9.99848154 C0.510771673,10.1556777 0.747019544,10.2460045 1.01199721,10.2460045 L1.13294888,10.241968 C1.29567563,10.2868268 1.3745506,10.2990125 1.45304853,10.3006119 C6.24866163,10.4070849 12.3396038,11.0170577 16.9119389,14.8252559 C20.7869922,18.0528795 22.3427745,23.2704355 21.6687932,30.7759417 C21.6466237,31.0243025 21.7018211,31.2141716 21.8380803,31.356821 C22.055175,31.6750975 22.2937604,31.8082268 22.603831,31.8243729 C25.7142646,31.9860626 28.8698666,31.9996192 31.8358971,32 C32.0940128,32 32.3007768,31.9194979 32.4493272,31.7609309 C32.6155227,31.5846184 32.7062364,31.3092205 32.691683,31.0253687 L32.7077445,30.8715237 C32.7360973,30.7632228 32.747559,30.6719059 32.7433363,30.5767809 C32.3896808,22.3344178 31.3572935,13.0030298 23.5298955,6.5589783 Z" id="Shape"></path>
            </g>
        </g>
    </g>
</svg>