<?xml version="1.0" encoding="UTF-8"?>
<svg width="38px" height="32px" viewBox="0 0 38 32" version="1.1" xmlns="http://www.w3.org/2000/svg" xmlns:xlink="http://www.w3.org/1999/xlink">
    <!-- Generator: Sketch 50.2 (55047) - http://www.bohemiancoding.com/sketch -->
    <title>twitter (1)</title>
    <desc>Created with Sketch.</desc>
    <defs></defs>
    <g id="Page-1" stroke="none" stroke-width="1" fill="none" fill-rule="evenodd">
        <g id="Desktop---rss" transform="translate(-746.000000, -16.000000)" fill="#000000" fill-rule="nonzero">
            <g id="twitter-(1)" transform="translate(746.311111, 16.000000)">
                <path d="M37.2707556,4.02204444 C37.0190222,3.85137778 36.6855111,3.86062222 36.4423111,4.04408889 C36.1230222,4.28586667 35.6039111,4.47786667 35.0449778,4.62577778 C36.5006222,2.99448889 36.5319111,1.90506667 36.5162667,1.65475556 C36.4999111,1.39591111 36.3441778,1.16622222 36.1095111,1.056 C35.8741333,0.945066667 35.5982222,0.972088889 35.3884444,1.12426667 C33.7507556,2.31466667 32.1194667,2.56568889 31.1495111,2.59128889 C29.6604444,1.16622222 27.7269333,0.385422222 25.6689778,0.385422222 C21.2629333,0.385422222 17.6789333,4.01777778 17.6789333,8.48213333 C17.6789333,8.86613333 17.7059556,9.24942222 17.7592889,9.62915556 C10.1233778,9.54311111 3.92248889,2.22648889 3.85848889,2.1504 C3.70915556,1.97262222 3.48302222,1.87733333 3.2512,1.89795556 C3.01937778,1.91786667 2.81244444,2.04942222 2.69653333,2.25137778 C0.4992,6.06293333 1.96977778,9.41084444 3.31377778,11.328 C3.07626667,11.2014222 2.88355556,11.0762667 2.76835556,10.9916444 C2.55502222,10.8323556 2.26986667,10.8060444 2.02951111,10.9240889 C1.78986667,11.0421333 1.63697778,11.2839111 1.632,11.5505778 C1.57297778,15.1829333 3.32088889,17.2636444 4.96497778,18.4142222 C4.74595556,18.3936 4.52337778,18.4746667 4.3712,18.6403556 C4.20053333,18.8259556 4.14008889,19.0883556 4.21404444,19.3294222 C5.34968889,23.0464 8.13795556,24.3093333 9.91217778,24.7381333 C6.26417778,27.5783111 0.895288889,26.6638222 0.836266667,26.6538667 C0.512,26.5962667 0.192,26.7669333 0.0597333333,27.0677333 C-0.0718222222,27.3678222 0.0177777778,27.7198222 0.279466667,27.9189333 C4.13013333,30.8579556 8.736,31.5086222 12.0625778,31.5086222 C14.5792,31.5086222 16.3648,31.136 16.5354667,31.0983111 C33.3873778,27.1047111 33.8616889,11.6686222 33.8225778,9.1392 C36.9863111,6.19733333 37.4805333,5.07662222 37.5566222,4.79928889 C37.6384,4.5056 37.5232,4.19271111 37.2707556,4.02204444 Z M32.6215111,8.3136 C32.4629333,8.45937778 32.3797333,8.66915556 32.3939556,8.88462222 C32.4387556,9.56728889 33.3006222,25.6647111 16.2218667,29.7116444 C16.1443556,29.728 9.35537778,31.1445333 3.47022222,28.2289778 C5.95697778,28.16 9.52248889,27.5086222 12.0064,24.7196444 C12.1941333,24.5098667 12.2396444,24.2083556 12.1230222,23.9523556 C12.0078222,23.6984889 11.7539556,23.5356444 11.4759111,23.5356444 C11.4737778,23.5356444 11.4709333,23.5356444 11.4688,23.5356444 C11.4332444,23.5584 7.6992,23.5313778 5.98968889,19.9793778 C6.67804444,20.0184889 7.52711111,19.9758222 8.20337778,19.6643556 C8.48213333,19.5356444 8.6464,19.2433778 8.61226667,18.9383111 C8.57813333,18.6339556 8.352,18.3857778 8.05191111,18.3224889 C7.86062222,18.2819556 3.70346667,17.3525333 3.12177778,12.8177778 C3.75253333,13.0936889 4.55964444,13.3191111 5.35751111,13.1975111 C5.632,13.1562667 5.85671111,12.9592889 5.93422222,12.6926222 C6.01173333,12.4259556 5.92711111,12.1386667 5.71733333,11.9566222 C5.53955556,11.8016 1.63555556,8.33208889 3.48657778,3.85706667 C5.49617778,5.96551111 11.4481778,11.4446222 18.6595556,11.0307556 C18.8707556,11.0186667 19.0663111,10.912 19.1921778,10.7413333 C19.3173333,10.5706667 19.36,10.3530667 19.3088,10.1475556 C19.1722667,9.60355556 19.1025778,9.0432 19.1025778,8.48284444 C19.1025778,4.80213333 22.0494222,1.80835556 25.6711111,1.80835556 C27.4424889,1.80835556 29.1043556,2.5152 30.3495111,3.79946667 C30.4803556,3.93457778 30.6602667,4.01208889 30.848,4.01564444 C31.6017778,4.02631111 32.8405333,3.93742222 34.24,3.37635556 C33.8360889,3.87911111 33.2430222,4.48142222 32.3704889,5.16693333 C32.1237333,5.36106667 32.0334222,5.69315556 32.1479111,5.98542222 C32.2624,6.2784 32.5582222,6.46257778 32.8668444,6.43484444 C33.0325333,6.42133333 33.8773333,6.34737778 34.8323556,6.14044444 C34.3104,6.7008 33.5971556,7.41617778 32.6215111,8.3136 Z" id="Shape"></path>
            </g>
        </g>
    </g>
</svg>