<?xml version="1.0" encoding="UTF-8"?>
<svg width="40px" height="34px" viewBox="0 0 40 34" version="1.1" xmlns="http://www.w3.org/2000/svg" xmlns:xlink="http://www.w3.org/1999/xlink">
    <!-- Generator: Sketch 50.2 (55047) - http://www.bohemiancoding.com/sketch -->
    <title>twitter (1) copy</title>
    <desc>Created with Sketch.</desc>
    <defs>
        <linearGradient x1="100%" y1="50%" x2="0%" y2="50%" id="linearGradient-1">
            <stop stop-color="#FFC92F" offset="0%"></stop>
            <stop stop-color="#FF9815" offset="100%"></stop>
        </linearGradient>
    </defs>
    <g id="Page-1" stroke="none" stroke-width="1" fill="none" fill-rule="evenodd">
        <g id="Desktop---rss" transform="translate(-745.000000, -15.000000)" fill="url(#linearGradient-1)" fill-rule="nonzero" stroke="#000000">
            <g id="twitter-(1)-copy" transform="translate(746.311111, 16.000000)">
                <path d="M37.2707556,4.02204444 C37.0190222,3.85137778 36.6855111,3.86062222 36.4423111,4.04408889 C36.1230222,4.28586667 35.6039111,4.47786667 35.0449778,4.62577778 C36.5006222,2.99448889 36.5319111,1.90506667 36.5162667,1.65475556 C36.4999111,1.39591111 36.3441778,1.16622222 36.1095111,1.056 C35.8741333,0.945066667 35.5982222,0.972088889 35.3884444,1.12426667 C33.7507556,2.31466667 32.1194667,2.56568889 31.1495111,2.59128889 C29.6604444,1.16622222 27.7269333,0.385422222 25.6689778,0.385422222 C21.2629333,0.385422222 17.6789333,4.01777778 17.6789333,8.48213333 C17.6789333,8.86613333 17.7059556,9.24942222 17.7592889,9.62915556 C10.1233778,9.54311111 3.92248889,2.22648889 3.85848889,2.1504 C3.70915556,1.97262222 3.48302222,1.87733333 3.2512,1.89795556 C3.01937778,1.91786667 2.81244444,2.04942222 2.69653333,2.25137778 C0.4992,6.06293333 1.96977778,9.41084444 3.31377778,11.328 C3.07626667,11.2014222 2.88355556,11.0762667 2.76835556,10.9916444 C2.55502222,10.8323556 2.26986667,10.8060444 2.02951111,10.9240889 C1.78986667,11.0421333 1.63697778,11.2839111 1.632,11.5505778 C1.57297778,15.1829333 3.32088889,17.2636444 4.96497778,18.4142222 C4.74595556,18.3936 4.52337778,18.4746667 4.3712,18.6403556 C4.20053333,18.8259556 4.14008889,19.0883556 4.21404444,19.3294222 C5.34968889,23.0464 8.13795556,24.3093333 9.91217778,24.7381333 C6.26417778,27.5783111 0.895288889,26.6638222 0.836266667,26.6538667 C0.512,26.5962667 0.192,26.7669333 0.0597333333,27.0677333 C-0.0718222222,27.3678222 0.0177777778,27.7198222 0.279466667,27.9189333 C4.13013333,30.8579556 8.736,31.5086222 12.0625778,31.5086222 C14.5792,31.5086222 16.3648,31.136 16.5354667,31.0983111 C33.3873778,27.1047111 33.8616889,11.6686222 33.8225778,9.1392 C36.9863111,6.19733333 37.4805333,5.07662222 37.5566222,4.79928889 C37.6384,4.5056 37.5232,4.19271111 37.2707556,4.02204444 Z" id="Shape"></path>
            </g>
        </g>
    </g>
</svg>