<?xml version="1.0" encoding="UTF-8"?>
<svg width="44px" height="34px" viewBox="0 0 44 34" version="1.1" xmlns="http://www.w3.org/2000/svg" xmlns:xlink="http://www.w3.org/1999/xlink">
    <!-- Generator: Sketch 50.2 (55047) - http://www.bohemiancoding.com/sketch -->
    <title>youtube copy</title>
    <desc>Created with Sketch.</desc>
    <defs>
        <linearGradient x1="100%" y1="50%" x2="0%" y2="50%" id="linearGradient-1">
            <stop stop-color="#FFC92F" offset="0%"></stop>
            <stop stop-color="#FF9815" offset="100%"></stop>
        </linearGradient>
    </defs>
    <g id="Page-1" stroke="none" stroke-width="1" fill="none" fill-rule="evenodd">
        <g id="Desktop---rss" transform="translate(-871.000000, -16.000000)" fill-rule="nonzero">
            <g id="youtube-copy" transform="translate(872.000000, 17.000000)">
                <path d="M41.2032163,7.18167939 C41.2032163,7.04268702 40.7863206,3.98550636 39.4661781,2.5263715 C37.8680509,0.789333333 36.1310127,0.580885496 35.2277659,0.511348601 L34.9498626,0.511348601 C29.321771,0.0944529262 20.914402,0.0249974555 20.7754097,0.0249974555 C20.7059542,0.0249974555 12.2290483,0.0944529262 6.67041221,0.650340967 L6.46196438,0.650340967 C5.48909924,0.719796438 3.75206107,0.928244275 2.22347074,2.66528244 C0.833791349,4.1244173 0.416895674,7.25113486 0.416895674,7.39012723 C0.416895674,7.39012723 0,10.9337405 0,14.4773537 L0,17.7430636 C0,21.2172214 0.416895674,24.7608346 0.416895674,24.8302901 C0.416895674,24.9692824 0.833791349,28.0264631 2.15393384,29.485598 C3.6130687,31.1531807 5.35010687,31.3616285 6.46188295,31.5006209 C6.67033079,31.5006209 6.80932316,31.5006209 7.01777099,31.5700763 C10.213944,31.8479796 20.3584326,31.986972 20.7753282,31.986972 C20.8447837,31.986972 29.3216896,31.986972 34.9497812,31.3616285 L35.158229,31.3616285 C36.1310127,31.292173 37.8680509,31.0837252 39.3966412,29.3466056 C40.7863206,27.8874707 41.2032163,24.7607532 41.2032163,24.6217608 C41.2032163,24.6217608 41.620112,21.0781476 41.620112,17.5345344 L41.620112,14.2689059 C41.620112,10.7947481 41.2032163,7.25113486 41.2032163,7.18167939 Z" id="Shape" stroke="#000000" fill="url(#linearGradient-1)"></path>
                <path d="M29.4606005,16.0754809 L16.2589313,8.36291094 C16.0504835,8.22391858 15.7725802,8.22391858 15.5641323,8.36291094 C15.3556845,8.50190331 15.2166921,8.71035115 15.2166921,8.98825445 L15.2166921,24.0659542 C15.2166921,24.3438575 15.3556845,24.5523053 15.5641323,24.6912977 C15.7031247,24.7607532 15.7725802,24.7607532 15.9115725,24.7607532 C16.0505649,24.7607532 16.1200204,24.7607532 16.2590127,24.6912977 L29.4606819,17.3261679 C29.6691298,17.1871756 29.8081221,16.9787277 29.8081221,16.7008244 C29.8081221,16.4229211 29.6690483,16.2143919 29.4606005,16.0754809 Z M16.6063715,22.8847226 L16.6063715,10.1694046 L27.7235623,16.700743 L16.6063715,22.8847226 Z" id="Shape" fill="#000000"></path>
            </g>
        </g>
    </g>
</svg>