<?xml version="1.0" encoding="UTF-8"?>
<svg width="42px" height="32px" viewBox="0 0 42 32" version="1.1" xmlns="http://www.w3.org/2000/svg" xmlns:xlink="http://www.w3.org/1999/xlink">
    <!-- Generator: Sketch 50.2 (55047) - http://www.bohemiancoding.com/sketch -->
    <title>youtube</title>
    <desc>Created with Sketch.</desc>
    <defs></defs>
    <g id="Page-1" stroke="none" stroke-width="1" fill="none" fill-rule="evenodd">
        <g id="Desktop---rss" transform="translate(-872.000000, -17.000000)" fill="#000000" fill-rule="nonzero">
            <g id="youtube" transform="translate(872.000000, 17.000000)">
                <path d="M41.2032163,7.18167939 C41.2032163,7.04268702 40.7863206,3.98550636 39.4661781,2.5263715 C37.8680509,0.789333333 36.1310127,0.580885496 35.2277659,0.511348601 L34.9498626,0.511348601 C29.321771,0.0944529262 20.914402,0.0249974555 20.7754097,0.0249974555 C20.7059542,0.0249974555 12.2290483,0.0944529262 6.67041221,0.650340967 L6.46196438,0.650340967 C5.48909924,0.719796438 3.75206107,0.928244275 2.22347074,2.66528244 C0.833791349,4.1244173 0.416895674,7.25113486 0.416895674,7.39012723 C0.416895674,7.39012723 0,10.9337405 0,14.4773537 L0,17.7430636 C0,21.2172214 0.416895674,24.7608346 0.416895674,24.8302901 C0.416895674,24.9692824 0.833791349,28.0264631 2.15393384,29.485598 C3.6130687,31.1531807 5.35010687,31.3616285 6.46188295,31.5006209 C6.67033079,31.5006209 6.80932316,31.5006209 7.01777099,31.5700763 C10.213944,31.8479796 20.3584326,31.986972 20.7753282,31.986972 C20.8447837,31.986972 29.3216896,31.986972 34.9497812,31.3616285 L35.158229,31.3616285 C36.1310127,31.292173 37.8680509,31.0837252 39.3966412,29.3466056 C40.7863206,27.8874707 41.2032163,24.7607532 41.2032163,24.6217608 C41.2032163,24.6217608 41.620112,21.0781476 41.620112,17.5345344 L41.620112,14.2689059 C41.620112,10.7947481 41.2032163,7.25113486 41.2032163,7.18167939 Z M40.2304326,17.6735267 C40.2304326,21.1476845 39.8135369,24.6217608 39.8135369,24.6217608 C39.6745445,25.3860967 39.2576489,27.609486 38.354402,28.5822697 C37.1731705,29.9719491 35.7835725,30.1108601 35.0192366,30.1803969 L34.8107888,30.1803969 C29.2521527,30.5972926 20.8447837,30.5972926 20.7753282,30.5972926 C20.7058728,30.5972926 10.2834809,30.4583003 7.22621883,30.1109415 C7.01777099,30.1109415 6.80932316,30.041486 6.60087532,30.041486 C5.6280916,29.9720305 4.23849364,29.7635827 3.12671756,28.5128957 C2.29292621,27.6096489 1.80657506,25.3861781 1.73703817,24.6218422 C1.73703817,24.5523868 1.32014249,21.078229 1.32014249,17.6736081 L1.32014249,14.4078982 C1.32014249,10.9337405 1.73703817,7.45966412 1.73703817,7.45966412 C1.80649364,6.69532824 2.29292621,4.47193893 3.12671756,3.49915522 C4.37740458,2.10947583 5.69754707,1.97048346 6.53133842,1.90102799 L6.73978626,1.90102799 C12.2984224,1.48413232 20.7057913,1.41467684 20.7752468,1.41467684 C20.8447023,1.41467684 29.2521527,1.48413232 34.8107074,1.90102799 L35.0886107,1.90102799 C35.8529466,1.97048346 37.2425445,2.10947583 38.4237761,3.49915522 C39.2575674,4.47193893 39.6744631,6.69532824 39.8134555,7.45966412 C39.8829109,7.59865649 40.2303511,11.0727328 40.2303511,14.4078982 L40.2303511,17.6735267 L40.2304326,17.6735267 Z" id="Shape"></path>
                <path d="M29.4606005,16.0754809 L16.2589313,8.36291094 C16.0504835,8.22391858 15.7725802,8.22391858 15.5641323,8.36291094 C15.3556845,8.50190331 15.2166921,8.71035115 15.2166921,8.98825445 L15.2166921,24.0659542 C15.2166921,24.3438575 15.3556845,24.5523053 15.5641323,24.6912977 C15.7031247,24.7607532 15.7725802,24.7607532 15.9115725,24.7607532 C16.0505649,24.7607532 16.1200204,24.7607532 16.2590127,24.6912977 L29.4606819,17.3261679 C29.6691298,17.1871756 29.8081221,16.9787277 29.8081221,16.7008244 C29.8081221,16.4229211 29.6690483,16.2143919 29.4606005,16.0754809 Z M16.6063715,22.8847226 L16.6063715,10.1694046 L27.7235623,16.700743 L16.6063715,22.8847226 Z" id="Shape"></path>
            </g>
        </g>
    </g>
</svg>